<svg width="215" height="215" viewBox="0 0 215 215" fill="none" xmlns="http://www.w3.org/2000/svg">
<mask id="path-1-inside-1_469_2611" fill="white">
<path d="M98.0663 114.461C96.9353 113.669 96.6604 112.11 97.4523 110.979L103.693 102.066C104.485 100.935 106.044 100.66 107.175 101.452L116.087 107.693C117.218 108.485 117.493 110.044 116.701 111.175L110.461 120.087C109.669 121.218 108.11 121.493 106.979 120.701L98.0663 114.461Z"/>
<path d="M137.035 10.7361C139.724 8.569 138.922 4.35954 135.572 3.48764C95.851 -6.85072 53.7395 6.27933 27.006 36.4555C25.1692 38.5288 25.8451 41.7369 28.3914 42.8466C55.6748 54.7371 86.2658 47.9231 122.044 22.2467C126.48 19.0634 131.57 15.1403 137.035 10.7361Z"/>
<path d="M98.5 214.567C142.642 218.529 186.523 195.111 206.334 152.921C206.773 151.987 207.196 151.05 207.606 150.111C209.325 146.164 204.728 142.983 201.249 145.545C150.429 182.969 113.144 188.358 85.0125 163.58C63.6952 144.805 41.2599 138.797 12.9614 147.814C10.549 148.583 9.37149 151.266 10.4555 153.54C20.87 175.387 38.7291 193.891 62.5125 204.905C66.6233 206.808 70.793 208.434 75 209.788C82.4915 212.2 90.6802 213.865 98.5 214.567Z"/>
<path fill-rule="evenodd" clip-rule="evenodd" d="M18.025 56.1928C15.9717 54.9957 13.3552 55.7657 12.2571 57.8637C11.533 59.2473 10.8356 60.6526 10.1656 62.0794C9.72251 63.023 9.29441 63.9697 8.88121 64.9193C8.20906 66.4639 8.66867 67.9869 10.087 68.8958C11.6036 69.8677 13.2476 71.321 12.963 73.8542C12.963 75.4762 13.4735 77.2159 14.4152 78.5365C15.2483 79.7049 15.738 81.132 15.738 82.6726C15.738 84.8987 14.7157 86.8877 13.1119 88.2019C12.003 89.1105 11.298 90.6085 11.298 92.0421C11.298 95.9992 8.06776 99.2071 4.08306 99.2071C2.29293 99.2071 0.226709 100.269 0.13607 102.057C-0.0318399 105.369 -0.0436739 108.675 0.0968199 111.965C0.214304 114.716 2.91667 116.55 5.62605 115.964C29.1891 110.867 48.8172 116.921 68.2568 132.343C97.8562 155.824 128.894 153.684 173.323 124.831C175.167 123.634 175.72 121.179 174.581 119.297C173.844 118.078 174.241 116.496 175.469 115.763C176.696 115.031 178.29 115.425 179.027 116.645C180.025 118.293 182.214 118.744 183.761 117.595C192.146 111.364 202.671 102.728 213.497 93.3643C214.635 92.3792 215.195 90.8828 214.939 89.4045C214.249 85.4129 213.333 81.4677 212.2 77.5883C211.35 74.681 208.002 73.4573 205.117 74.3803C196.771 77.0512 188.312 75.4177 183.836 69.5181C178.498 62.4838 180.591 51.7176 188.266 43.8611L188.349 43.776L188.402 43.7223C188.442 43.6823 188.482 43.6424 188.521 43.6026L188.554 43.57L188.62 43.5049C190.629 41.5152 191.126 38.2859 189.244 36.1757C186.574 33.1829 183.723 30.3253 180.698 27.6208C179.064 26.1607 176.57 26.2238 174.914 27.6584C164.417 36.7504 154.415 44.6535 144.874 51.3827C142.778 52.8609 142.157 55.7067 143.484 57.901C144.222 59.1202 143.825 60.7023 142.597 61.4349C141.37 62.1674 139.776 61.7729 139.039 60.5538C137.818 58.5371 135.166 57.9406 133.17 59.1938C90.6998 85.8556 57.8177 87.4256 31.068 65.3792C26.7546 61.8243 22.4208 58.7557 18.025 56.1928ZM165.354 99.047C166.582 98.3144 168.175 98.7089 168.913 99.928L173.827 108.05C174.565 109.27 174.168 110.852 172.94 111.584C171.712 112.317 170.119 111.922 169.381 110.703L164.467 102.581C163.729 101.362 164.127 99.7795 165.354 99.047ZM145.125 65.614C146.353 64.8814 147.946 65.2759 148.684 66.4951L153.598 74.6175C154.336 75.8366 153.939 77.4188 152.711 78.1513C151.483 78.8839 149.89 78.4894 149.153 77.2702L144.238 69.1478C143.5 67.9287 143.898 66.3465 145.125 65.614ZM158.799 83.2116C158.061 81.9924 156.468 81.5979 155.24 82.3305C154.012 83.063 153.615 84.6452 154.353 85.8644L159.267 93.9868C160.005 95.2059 161.598 95.6004 162.826 94.8679C164.054 94.1353 164.451 92.5531 163.713 91.334L158.799 83.2116ZM97.4523 110.979C96.6604 112.11 96.9353 113.669 98.0663 114.461L106.979 120.701C108.11 121.493 109.669 121.218 110.461 120.087L116.701 111.175C117.493 110.044 117.218 108.485 116.087 107.693L107.175 101.452C106.044 100.66 104.485 100.935 103.693 102.066L97.4523 110.979Z"/>
</mask>
<path d="M98.0663 114.461C96.9353 113.669 96.6604 112.11 97.4523 110.979L103.693 102.066C104.485 100.935 106.044 100.66 107.175 101.452L116.087 107.693C117.218 108.485 117.493 110.044 116.701 111.175L110.461 120.087C109.669 121.218 108.11 121.493 106.979 120.701L98.0663 114.461Z" fill="#F4B52A"/>
<path d="M137.035 10.7361C139.724 8.569 138.922 4.35954 135.572 3.48764C95.851 -6.85072 53.7395 6.27933 27.006 36.4555C25.1692 38.5288 25.8451 41.7369 28.3914 42.8466C55.6748 54.7371 86.2658 47.9231 122.044 22.2467C126.48 19.0634 131.57 15.1403 137.035 10.7361Z" fill="#FFD57A"/>
<path d="M98.5 214.567C142.642 218.529 186.523 195.111 206.334 152.921C206.773 151.987 207.196 151.05 207.606 150.111C209.325 146.164 204.728 142.983 201.249 145.545C150.429 182.969 113.144 188.358 85.0125 163.58C63.6952 144.805 41.2599 138.797 12.9614 147.814C10.549 148.583 9.37149 151.266 10.4555 153.54C20.87 175.387 38.7291 193.891 62.5125 204.905C66.6233 206.808 70.793 208.434 75 209.788C82.4915 212.2 90.6802 213.865 98.5 214.567Z" fill="#FFD57A"/>
<path fill-rule="evenodd" clip-rule="evenodd" d="M18.025 56.1928C15.9717 54.9957 13.3552 55.7657 12.2571 57.8637C11.533 59.2473 10.8356 60.6526 10.1656 62.0794C9.72251 63.023 9.29441 63.9697 8.88121 64.9193C8.20906 66.4639 8.66867 67.9869 10.087 68.8958C11.6036 69.8677 13.2476 71.321 12.963 73.8542C12.963 75.4762 13.4735 77.2159 14.4152 78.5365C15.2483 79.7049 15.738 81.132 15.738 82.6726C15.738 84.8987 14.7157 86.8877 13.1119 88.2019C12.003 89.1105 11.298 90.6085 11.298 92.0421C11.298 95.9992 8.06776 99.2071 4.08306 99.2071C2.29293 99.2071 0.226709 100.269 0.13607 102.057C-0.0318399 105.369 -0.0436739 108.675 0.0968199 111.965C0.214304 114.716 2.91667 116.55 5.62605 115.964C29.1891 110.867 48.8172 116.921 68.2568 132.343C97.8562 155.824 128.894 153.684 173.323 124.831C175.167 123.634 175.72 121.179 174.581 119.297C173.844 118.078 174.241 116.496 175.469 115.763C176.696 115.031 178.29 115.425 179.027 116.645C180.025 118.293 182.214 118.744 183.761 117.595C192.146 111.364 202.671 102.728 213.497 93.3643C214.635 92.3792 215.195 90.8828 214.939 89.4045C214.249 85.4129 213.333 81.4677 212.2 77.5883C211.35 74.681 208.002 73.4573 205.117 74.3803C196.771 77.0512 188.312 75.4177 183.836 69.5181C178.498 62.4838 180.591 51.7176 188.266 43.8611L188.349 43.776L188.402 43.7223C188.442 43.6823 188.482 43.6424 188.521 43.6026L188.554 43.57L188.62 43.5049C190.629 41.5152 191.126 38.2859 189.244 36.1757C186.574 33.1829 183.723 30.3253 180.698 27.6208C179.064 26.1607 176.57 26.2238 174.914 27.6584C164.417 36.7504 154.415 44.6535 144.874 51.3827C142.778 52.8609 142.157 55.7067 143.484 57.901C144.222 59.1202 143.825 60.7023 142.597 61.4349C141.37 62.1674 139.776 61.7729 139.039 60.5538C137.818 58.5371 135.166 57.9406 133.17 59.1938C90.6998 85.8556 57.8177 87.4256 31.068 65.3792C26.7546 61.8243 22.4208 58.7557 18.025 56.1928ZM165.354 99.047C166.582 98.3144 168.175 98.7089 168.913 99.928L173.827 108.05C174.565 109.27 174.168 110.852 172.94 111.584C171.712 112.317 170.119 111.922 169.381 110.703L164.467 102.581C163.729 101.362 164.127 99.7795 165.354 99.047ZM145.125 65.614C146.353 64.8814 147.946 65.2759 148.684 66.4951L153.598 74.6175C154.336 75.8366 153.939 77.4188 152.711 78.1513C151.483 78.8839 149.89 78.4894 149.153 77.2702L144.238 69.1478C143.5 67.9287 143.898 66.3465 145.125 65.614ZM158.799 83.2116C158.061 81.9924 156.468 81.5979 155.24 82.3305C154.012 83.063 153.615 84.6452 154.353 85.8644L159.267 93.9868C160.005 95.2059 161.598 95.6004 162.826 94.8679C164.054 94.1353 164.451 92.5531 163.713 91.334L158.799 83.2116ZM97.4523 110.979C96.6604 112.11 96.9353 113.669 98.0663 114.461L106.979 120.701C108.11 121.493 109.669 121.218 110.461 120.087L116.701 111.175C117.493 110.044 117.218 108.485 116.087 107.693L107.175 101.452C106.044 100.66 104.485 100.935 103.693 102.066L97.4523 110.979Z" fill="#FFD57A"/>
<path d="M98.0663 114.461C96.9353 113.669 96.6604 112.11 97.4523 110.979L103.693 102.066C104.485 100.935 106.044 100.66 107.175 101.452L116.087 107.693C117.218 108.485 117.493 110.044 116.701 111.175L110.461 120.087C109.669 121.218 108.11 121.493 106.979 120.701L98.0663 114.461Z" stroke="#F4B52A" stroke-width="10" mask="url(#path-1-inside-1_469_2611)"/>
<path d="M137.035 10.7361C139.724 8.569 138.922 4.35954 135.572 3.48764C95.851 -6.85072 53.7395 6.27933 27.006 36.4555C25.1692 38.5288 25.8451 41.7369 28.3914 42.8466C55.6748 54.7371 86.2658 47.9231 122.044 22.2467C126.48 19.0634 131.57 15.1403 137.035 10.7361Z" stroke="#F4B52A" stroke-width="10" mask="url(#path-1-inside-1_469_2611)"/>
<path d="M98.5 214.567C142.642 218.529 186.523 195.111 206.334 152.921C206.773 151.987 207.196 151.05 207.606 150.111C209.325 146.164 204.728 142.983 201.249 145.545C150.429 182.969 113.144 188.358 85.0125 163.58C63.6952 144.805 41.2599 138.797 12.9614 147.814C10.549 148.583 9.37149 151.266 10.4555 153.54C20.87 175.387 38.7291 193.891 62.5125 204.905C66.6233 206.808 70.793 208.434 75 209.788C82.4915 212.2 90.6802 213.865 98.5 214.567Z" stroke="#F4B52A" stroke-width="10" mask="url(#path-1-inside-1_469_2611)"/>
<path fill-rule="evenodd" clip-rule="evenodd" d="M18.025 56.1928C15.9717 54.9957 13.3552 55.7657 12.2571 57.8637C11.533 59.2473 10.8356 60.6526 10.1656 62.0794C9.72251 63.023 9.29441 63.9697 8.88121 64.9193C8.20906 66.4639 8.66867 67.9869 10.087 68.8958C11.6036 69.8677 13.2476 71.321 12.963 73.8542C12.963 75.4762 13.4735 77.2159 14.4152 78.5365C15.2483 79.7049 15.738 81.132 15.738 82.6726C15.738 84.8987 14.7157 86.8877 13.1119 88.2019C12.003 89.1105 11.298 90.6085 11.298 92.0421C11.298 95.9992 8.06776 99.2071 4.08306 99.2071C2.29293 99.2071 0.226709 100.269 0.13607 102.057C-0.0318399 105.369 -0.0436739 108.675 0.0968199 111.965C0.214304 114.716 2.91667 116.55 5.62605 115.964C29.1891 110.867 48.8172 116.921 68.2568 132.343C97.8562 155.824 128.894 153.684 173.323 124.831C175.167 123.634 175.72 121.179 174.581 119.297C173.844 118.078 174.241 116.496 175.469 115.763C176.696 115.031 178.29 115.425 179.027 116.645C180.025 118.293 182.214 118.744 183.761 117.595C192.146 111.364 202.671 102.728 213.497 93.3643C214.635 92.3792 215.195 90.8828 214.939 89.4045C214.249 85.4129 213.333 81.4677 212.2 77.5883C211.35 74.681 208.002 73.4573 205.117 74.3803C196.771 77.0512 188.312 75.4177 183.836 69.5181C178.498 62.4838 180.591 51.7176 188.266 43.8611L188.349 43.776L188.402 43.7223C188.442 43.6823 188.482 43.6424 188.521 43.6026L188.554 43.57L188.62 43.5049C190.629 41.5152 191.126 38.2859 189.244 36.1757C186.574 33.1829 183.723 30.3253 180.698 27.6208C179.064 26.1607 176.57 26.2238 174.914 27.6584C164.417 36.7504 154.415 44.6535 144.874 51.3827C142.778 52.8609 142.157 55.7067 143.484 57.901C144.222 59.1202 143.825 60.7023 142.597 61.4349C141.37 62.1674 139.776 61.7729 139.039 60.5538C137.818 58.5371 135.166 57.9406 133.17 59.1938C90.6998 85.8556 57.8177 87.4256 31.068 65.3792C26.7546 61.8243 22.4208 58.7557 18.025 56.1928ZM165.354 99.047C166.582 98.3144 168.175 98.7089 168.913 99.928L173.827 108.05C174.565 109.27 174.168 110.852 172.94 111.584C171.712 112.317 170.119 111.922 169.381 110.703L164.467 102.581C163.729 101.362 164.127 99.7795 165.354 99.047ZM145.125 65.614C146.353 64.8814 147.946 65.2759 148.684 66.4951L153.598 74.6175C154.336 75.8366 153.939 77.4188 152.711 78.1513C151.483 78.8839 149.89 78.4894 149.153 77.2702L144.238 69.1478C143.5 67.9287 143.898 66.3465 145.125 65.614ZM158.799 83.2116C158.061 81.9924 156.468 81.5979 155.24 82.3305C154.012 83.063 153.615 84.6452 154.353 85.8644L159.267 93.9868C160.005 95.2059 161.598 95.6004 162.826 94.8679C164.054 94.1353 164.451 92.5531 163.713 91.334L158.799 83.2116ZM97.4523 110.979C96.6604 112.11 96.9353 113.669 98.0663 114.461L106.979 120.701C108.11 121.493 109.669 121.218 110.461 120.087L116.701 111.175C117.493 110.044 117.218 108.485 116.087 107.693L107.175 101.452C106.044 100.66 104.485 100.935 103.693 102.066L97.4523 110.979Z" stroke="#F4B52A" stroke-width="10" mask="url(#path-1-inside-1_469_2611)"/>
</svg>
