<svg width="64" height="64" viewBox="0 0 64 64" fill="none" xmlns="http://www.w3.org/2000/svg">
<path d="M49.9973 32.2126C50.0009 38.7406 50.0009 45.2705 49.9973 51.8005C49.9973 52.2991 50.0009 52.8035 49.9423 53.2965C49.7428 55.0045 48.659 55.9981 47.0095 56C37.0026 56 26.9958 56 16.9889 56C15.3706 55.9981 14.2996 55.0457 14.0671 53.3884C14.003 52.9272 14.003 52.4529 14.003 51.9861C13.9993 45.1131 13.9975 38.24 14.0067 31.367C14.0067 30.8065 13.9993 30.2272 14.1312 29.691C14.5486 27.9943 15.6818 27.2275 17.5144 27.3681C17.5144 25.5214 17.4594 23.776 17.5235 22.0362C17.7707 15.4556 22.6679 9.64377 29.0481 8.30704C35.571 6.93844 42.1525 10.2418 45.0012 16.2881C46.0831 18.5847 46.5664 20.9994 46.539 23.536C46.5262 24.779 46.5372 26.022 46.5372 27.2894C46.8081 27.325 46.9857 27.3569 47.1614 27.3719C48.7725 27.4975 49.794 28.493 49.9478 30.1522C50.0119 30.8346 49.9973 31.5245 49.9973 32.2126ZM40.4519 27.3287C40.4519 25.5007 40.5983 23.7741 40.4226 22.083C40.0418 18.4253 38.0628 15.883 34.6814 14.6907C31.3091 13.502 28.3104 14.3944 25.8242 16.9854C22.9976 19.9326 23.4333 23.6447 23.5193 27.3287H40.4519ZM35.4081 41.0409C36.415 39.3461 36.1605 37.162 34.7216 35.8234C33.3485 34.5466 30.9338 34.4641 29.471 35.6453C27.9863 36.8451 27.4645 39.0593 28.4733 40.6941C29.0243 41.5865 29.136 42.4527 29.0975 43.4238C29.0774 43.9844 29.0939 44.5468 29.0957 45.1092C29.0957 46.1104 29.0756 47.1096 29.1012 48.1089C29.1268 49.1438 29.6248 49.6481 30.6354 49.6781C31.4885 49.7025 32.3434 49.695 33.1984 49.6819C34.4287 49.665 34.8955 49.1813 34.9028 47.9046C34.9138 46.1554 34.868 44.4043 34.9285 42.657C34.9468 42.1096 35.128 41.5096 35.4081 41.0409Z" fill="#FFD06B"/>
</svg>
